<svg width="1141" height="889" viewBox="0 0 1141 889" fill="none" xmlns="http://www.w3.org/2000/svg">
<path d="M36.8313 362.709C56.9112 355.872 75.7356 337.809 92.4365 325.639C121.608 304.382 150.732 283.131 181.437 264.109C247.714 223.051 318.393 190.186 388.031 155.418C414.64 142.134 432.248 133.062 459.067 119.869C473.92 112.563 489.027 96.9027 505.04 101.097C514.538 103.584 469.32 197.255 467.621 201.075C432.783 279.406 401.564 360.777 358.295 435.076C323.93 494.087 288.507 552.591 255.972 612.648C245.987 631.079 230.666 659.366 265.176 640.355C292.79 625.143 316.491 602.331 339.871 581.566C378.732 547.051 417.968 512.937 456.737 478.324C517.024 424.501 579.906 375.367 647.031 330.044C668.216 315.74 719.049 282.887 740.973 270.574C755.023 262.684 769.05 254.456 784.159 248.855C792.36 245.814 803.69 238.998 810.108 244.942C833.354 266.473 705.981 415.882 689.756 436.867C634.612 508.185 579.379 585.72 543.74 668.966C533.537 692.8 462.959 790.187 530.48 788.605C575.779 787.543 618.242 761.11 655.204 737.721C801.417 645.196 940.876 542.469 1088.2 451.395" stroke="#FFB200" stroke-width="200"/>
</svg>
